<?xml version="1.0" encoding="UTF-8"?>
<svg xmlns="http://www.w3.org/2000/svg" version="1.1" xmlns:xlink="http://www.w3.org/1999/xlink" xmlns:svgjs="http://svgjs.dev/svgjs" width="1500" height="287" viewBox="0 0 1500 287"><g transform="matrix(1,0,0,1,-0.9090909090909918,0.29236748656694544)"><svg viewBox="0 0 396 76" data-background-color="#444444" preserveAspectRatio="xMidYMid meet" height="287" width="1500" xmlns="http://www.w3.org/2000/svg" xmlns:xlink="http://www.w3.org/1999/xlink"><g id="tight-bounds" transform="matrix(1,0,0,1,0.2400000000000091,-0.07742135532782868)"><svg viewBox="0 0 395.52 76.15484271065563" height="76.15484271065563" width="395.52"><g><svg viewBox="0 0 508.4999892055663 97.90841599999997" height="76.15484271065563" width="395.52"><g><svg viewBox="0 0 508.4999892055663 97.90841599999997" height="97.90841599999997" width="508.4999892055663"><g id="textblocktransform"><svg viewBox="0 0 508.4999892055663 97.90841599999997" height="97.90841599999997" width="508.4999892055663" id="textblock"><g><svg viewBox="0 0 508.4999892055663 97.90841599999997" height="97.90841599999997" width="508.4999892055663"><g><svg><g></g><g></g></svg></g><g><svg><g><svg></svg></g><g></g></svg></g><g id="text-0"><svg viewBox="0 0 508.4999892055663 97.90841599999997" height="97.90841599999997" width="508.4999892055663"><g transform="matrix(1,0,0,1,0,12.196683718910677)"><svg width="395.52" viewBox="4.7 -38.5 262.53000000000003 48.8" height="73.51504856217862" data-palette-color="#ffffff"><path d="M13.3 0L4.7 0 4.7-32.5 26.95-32.5 26.95-25.3 13.3-25.3 13.3-19.1 25-19.1 25-11.9 13.3-11.9 13.3 0ZM49.55 0.6L49.55 0.6Q47.05 0.6 45.17-0.2 43.3-1 42.02-2.43 40.75-3.85 40.12-5.85 39.5-7.85 39.5-10.3L39.5-10.3 39.5-28.1 32-28.1 32-34.8 48.1-34.8 48.1-10Q48.1-8.9 48.45-8.2 48.8-7.5 49.32-7.08 49.85-6.65 50.52-6.48 51.2-6.3 51.85-6.3L51.85-6.3Q53.4-6.3 55.45-7L55.45-7 57.3-0.7Q56.3-0.4 55.42-0.15 54.55 0.1 53.65 0.25 52.75 0.4 51.75 0.5 50.75 0.6 49.55 0.6ZM81.8 0L73.2 0 73.2-18.3 63.7-18.3 63.7-25 81.8-25 81.8 0ZM77.2-28.4L77.2-28.4Q74.8-28.4 73.25-29.78 71.7-31.15 71.7-33.4L71.7-33.4Q71.7-35.65 73.25-37.08 74.8-38.5 77.2-38.5L77.2-38.5Q79.59-38.5 81.15-37.08 82.7-35.65 82.7-33.4L82.7-33.4Q82.7-31.15 81.15-29.78 79.59-28.4 77.2-28.4ZM103.44 10.3L103.44 10.3Q101.09 10.3 99.07 9.98 97.04 9.65 95.49 8.9 93.94 8.15 93.07 6.98 92.19 5.8 92.19 4.1L92.19 4.1Q92.19 1.1 95.99-0.7L95.99-0.7 95.99-0.9Q94.94-1.6 94.22-2.6 93.49-3.6 93.49-5.2L93.49-5.2Q93.49-6.5 94.34-7.75 95.19-9 96.49-9.9L96.49-9.9 96.49-10.1Q95.04-11 94.07-12.65 93.09-14.3 93.09-16.5L93.09-16.5Q93.09-18.8 93.99-20.53 94.89-22.25 96.44-23.38 97.99-24.5 99.97-25.05 101.94-25.6 104.14-25.6L104.14-25.6Q106.49-25.6 108.39-25L108.39-25 118.49-25 118.49-18.8 113.99-18.8Q114.24-18.35 114.47-17.65 114.69-16.95 114.69-16.2L114.69-16.2Q114.69-14 113.89-12.43 113.09-10.85 111.67-9.85 110.24-8.85 108.32-8.38 106.39-7.9 104.14-7.9L104.14-7.9Q102.69-7.9 100.99-8.25L100.99-8.25Q100.54-7.9 100.37-7.63 100.19-7.35 100.19-6.8L100.19-6.8Q100.19-5.95 101.09-5.63 101.99-5.3 104.09-5.3L104.09-5.3 108.34-5.3Q113.34-5.3 116.04-3.78 118.74-2.25 118.74 1.2L118.74 1.2Q118.74 3.25 117.67 4.93 116.59 6.6 114.59 7.8 112.59 9 109.77 9.65 106.94 10.3 103.44 10.3ZM104.14-13L104.14-13Q105.39-13 106.29-13.85 107.19-14.7 107.19-16.5L107.19-16.5Q107.19-18.25 106.29-19.07 105.39-19.9 104.14-19.9L104.14-19.9Q102.89-19.9 102.02-19.07 101.14-18.25 101.14-16.5L101.14-16.5Q101.14-14.7 102.02-13.85 102.89-13 104.14-13ZM104.79 5L104.79 5Q107.34 5 108.97 4.38 110.59 3.75 110.59 2.7L110.59 2.7Q110.59 1.7 109.59 1.45 108.59 1.2 106.69 1.2L106.69 1.2 104.19 1.2Q102.74 1.2 101.89 1.13 101.04 1.05 100.39 0.9L100.39 0.9Q99.74 1.35 99.44 1.75 99.14 2.15 99.14 2.7L99.14 2.7Q99.14 3.9 100.69 4.45 102.24 5 104.79 5ZM131.79 0L123.19 0 123.19-34.8 131.79-34.8 131.79-26.7 131.29-22.3 131.49-22.3Q132.69-23.5 134.64-24.55 136.59-25.6 139.39-25.6L139.39-25.6Q143.49-25.6 145.39-22.83 147.29-20.05 147.29-15.4L147.29-15.4 147.29 0 138.69 0 138.69-14.3Q138.69-16.4 138.06-17.35 137.44-18.3 135.79-18.3L135.79-18.3Q134.59-18.3 133.69-17.8 132.79-17.3 131.79-16.4L131.79-16.4 131.79 0ZM169.29 0.6L169.29 0.6Q166.19 0.6 164.06-0.2 161.94-1 160.61-2.48 159.29-3.95 158.69-6.03 158.09-8.1 158.09-10.6L158.09-10.6 158.09-18.3 152.09-18.3 152.09-24.7 158.49-25 159.59-32.5 166.69-32.5 166.69-25 176.59-25 176.59-18.3 166.69-18.3 166.69-10.75Q166.69-8.05 167.91-7.08 169.14-6.1 171.54-6.1L171.54-6.1Q172.84-6.1 173.96-6.33 175.09-6.55 176.09-6.9L176.09-6.9 177.59-0.7Q175.94-0.25 173.89 0.18 171.84 0.6 169.29 0.6ZM197.89 0.6L197.89 0.6Q194.84 0.6 192.06-0.43 189.29-1.45 187.16-3.53 185.04-5.6 183.76-8.72 182.49-11.85 182.49-16L182.49-16Q182.49-20.1 183.74-23.28 184.99-26.45 187.14-28.63 189.29-30.8 192.19-31.95 195.09-33.1 198.39-33.1L198.39-33.1Q201.54-33.1 204.09-31.83 206.64-30.55 208.39-28.9L208.39-28.9 203.69-23.6Q202.54-24.6 201.29-25.15 200.04-25.7 198.39-25.7L198.39-25.7Q196.89-25.7 195.59-25.05 194.29-24.4 193.34-23.2 192.39-22 191.84-20.25 191.29-18.5 191.29-16.3L191.29-16.3Q191.29-11.7 193.39-9.25 195.49-6.8 198.79-6.8L198.79-6.8Q200.39-6.8 201.71-7.53 203.04-8.25 204.09-9.4L204.09-9.4 208.79-4.2Q206.74-1.8 203.96-0.6 201.19 0.6 197.89 0.6ZM229.28 0L220.68 0 220.68-25.3 211.33-25.3 211.33-32.5 238.63-32.5 238.63-25.3 229.28-25.3 229.28 0ZM267.23 0L244.78 0 244.78-32.5 253.38-32.5 253.38-7.2 267.23-7.2 267.23 0Z" opacity="1" transform="matrix(1,0,0,1,0,0)" fill="#ffffff" class="wordmark-text-0" data-fill-palette-color="primary"></path></svg></g><g><svg xmlns="http://www.w3.org/2000/svg" viewBox="18.89 18.099999999999994 54.7 56.77000000000001" x="414.16159999999996" y="0" height="97.90841599999997" width="94.33838920556629" class="icon-cg-0" data-fill-palette-color="accent" id="cg-0"><path d="M61.77 60.82h-3.12v-1.28h-1.61v1.28h-3.37v-0.71c0-0.45-0.36-0.81-0.81-0.81h-15.68c-0.45 0-0.81 0.36-0.81 0.81v13.95c0 0.45 0.36 0.81 0.81 0.81h15.68c0.45 0 0.81-0.36 0.81-0.81v-0.71h3.37v1.28h1.61v-1.28h3.12c1.83 0 3.31-1.49 3.31-3.31v-5.9c0-1.83-1.49-3.31-3.31-3.31Zm-2.42 6.26c0 2.99-0.87 4.25-1.23 4.65h-1.49c0.16-0.35 0.25-0.73 0.25-1.13v-7.03c0-0.4-0.09-0.78-0.25-1.13h1.46c0.37 0.44 1.25 1.79 1.25 4.65Zm-7.3 6.17h-14.07v-12.33h14.07v12.33Zm1.61-1.52v-9.29h0.47c0.62 0 1.13 0.51 1.13 1.13v7.03c0 0.62-0.51 1.13-1.13 1.13h-0.47Zm9.8-1.7c0 0.94-0.76 1.7-1.7 1.7h-1.71c0.48-0.94 0.91-2.41 0.91-4.65s-0.46-3.69-0.94-4.65h1.74c0.94 0 1.7 0.76 1.7 1.7v5.9Z" fill="#00d1cd" data-fill-palette-color="accent"></path><path d="M37.18 33.66h15.68c0.45 0 0.81-0.36 0.81-0.81v-0.71h3.37v1.28h1.61v-1.28h3.12c1.83 0 3.31-1.49 3.31-3.31v-5.9c0-1.83-1.49-3.31-3.31-3.31h-3.12v-1.28h-1.61v1.28h-3.37v-0.71c0-0.45-0.36-0.81-0.81-0.81h-15.68c-0.45 0-0.81 0.36-0.81 0.81v13.95c0 0.45 0.36 0.81 0.81 0.81Zm19.46-12.43h1.46c0.37 0.44 1.25 1.79 1.25 4.65s-0.87 4.25-1.23 4.65h-1.49c0.16-0.35 0.25-0.73 0.25-1.13v-7.03c0-0.4-0.09-0.78-0.25-1.13Zm6.83 1.7v5.9c0 0.94-0.76 1.7-1.7 1.7h-1.71c0.48-0.94 0.91-2.41 0.91-4.65s-0.46-3.69-0.94-4.65h1.74c0.94 0 1.7 0.76 1.7 1.7Zm-9.32-1.7c0.62 0 1.13 0.51 1.13 1.13v7.03c0 0.62-0.51 1.13-1.13 1.13h-0.47v-9.29h0.47Zm-16.16-1.52h14.07v12.33h-14.07v-12.33Z" fill="#00d1cd" data-fill-palette-color="accent"></path><path d="M70.28 40.31h-3.12v-1.28h-1.61v1.28h-3.37v-0.71c0-0.45-0.36-0.81-0.81-0.81h-15.68c-0.45 0-0.81 0.36-0.81 0.81v13.95c0 0.45 0.36 0.81 0.81 0.81h15.68c0.45 0 0.81-0.36 0.81-0.81v-0.71h3.37v1.28h1.61v-1.28h3.12c1.83 0 3.31-1.49 3.31-3.31v-5.9c0-1.83-1.49-3.31-3.31-3.31Zm-2.42 6.26c0 2.99-0.87 4.25-1.23 4.65h-1.49c0.16-0.35 0.25-0.73 0.25-1.13v-7.03c0-0.4-0.09-0.78-0.25-1.13h1.46c0.37 0.44 1.25 1.79 1.25 4.65Zm-7.3 6.17h-14.07v-12.33h14.07v12.33Zm1.61-1.52v-9.29h0.47c0.62 0 1.13 0.51 1.13 1.13v7.03c0 0.62-0.51 1.13-1.13 1.13h-0.47Zm9.8-1.7c0 0.94-0.76 1.7-1.7 1.7h-1.71c0.48-0.94 0.91-2.41 0.91-4.65s-0.46-3.69-0.94-4.65h1.74c0.94 0 1.7 0.76 1.7 1.7v5.9Z" fill="#00d1cd" data-fill-palette-color="accent"></path><path d="M37.58 46l-4.49-4.49-1.14 1.14 3.12 3.12H18.89v1.61h16.17l-3.12 3.12 1.14 1.14 4.49-4.49c0.32-0.32 0.32-0.83 0-1.14Z" fill="#00d1cd" data-fill-palette-color="accent"></path><path d="M27.31 28.26l1.14 1.14 2.95-2.95c0.32-0.32 0.32-0.83 0-1.14l-2.95-2.95-1.14 1.14 1.58 1.58h-9.97v1.61h9.97l-1.58 1.58Z" fill="#00d1cd" data-fill-palette-color="accent"></path><path d="M28.46 63.56l-1.14 1.14 1.58 1.58h-9.97v1.61h9.97l-1.58 1.58 1.14 1.14 2.95-2.95c0.32-0.32 0.32-0.83 0-1.14l-2.95-2.95Z" fill="#00d1cd" data-fill-palette-color="accent"></path></svg></g></svg></g></svg></g></svg></g></svg></g></svg></g><defs></defs></svg><rect width="395.52" height="76.15484271065563" fill="none" stroke="none"></rect></g></svg></g></svg>