<svg width="60" height="60" viewBox="0 0 60 60" fill="none" xmlns="http://www.w3.org/2000/svg">
<path d="M51.0028 7.29655C51.5231 7.28125 52.7883 7.24287 52.8029 8.05633C52.8357 9.88094 52.8065 11.7122 52.8057 13.538L52.8044 24.8371L52.8039 42.645C52.8042 45.3954 52.8092 48.1449 52.8221 50.8949C52.8258 51.6918 52.8192 52.7321 51.7797 52.725C50.3866 52.7154 48.993 52.7102 47.5998 52.7089L38.5706 52.7061L9.06051 52.7167C7.84721 52.7137 7.18498 52.864 7.23725 51.3899C7.27288 50.3843 7.25331 49.2801 7.25389 48.2698L7.25524 40.2998L7.25436 18.9907C7.25413 15.4789 7.34682 11.4926 7.23989 8.00741C7.49184 7.5066 7.61038 7.33903 8.20592 7.32244C9.75637 7.27932 11.3111 7.29848 12.8627 7.29953L21.479 7.30276L51.0028 7.29655ZM9.42286 50.5823C11.7981 50.4876 14.6198 50.5577 17.0236 50.558L31.1158 50.5586L44.2598 50.5581L48.5435 50.557C49.1417 50.5563 49.8549 50.5215 50.4381 50.5465L50.5206 50.4777C50.5639 49.7426 50.5084 48.1817 50.5087 47.3679L50.5101 40.4072L50.51 18.9906L50.5071 12.6278C50.5059 11.8112 50.4486 10.2262 50.5167 9.47483L22.3301 9.47008L14.0113 9.47254C12.7519 9.47307 10.6434 9.54016 9.47829 9.41213C9.59547 12.632 9.51256 16.2853 9.51133 19.529L9.50852 37.6346L9.5084 46.259C9.50905 47.1728 9.56659 49.8208 9.42286 50.5823Z" fill="#0066CC"/>
<path d="M9.63955 17.7369L8.36719 15.6472C9.91764 15.6041 11.4724 15.6232 13.0239 15.6243L21.6403 15.6275L51.1641 15.6213L50.678 17.7996L22.4913 17.7948L14.1725 17.7973C12.9132 17.7978 10.8047 17.8649 9.63955 17.7369Z" fill="#0066CC"/>
<path d="M45.9096 11.8563C46.5179 11.6716 47.1601 12.0181 47.3398 12.628C47.5194 13.2379 47.1675 13.8772 46.5562 14.0518C46.0036 14.2095 45.4197 13.933 45.1916 13.4055C45.0622 13.1062 45.0666 12.766 45.2037 12.4701C45.3409 12.1744 45.5976 11.9511 45.9096 11.8563Z" fill="#0066CC"/>
<path d="M42.5937 11.8665C42.988 11.7583 43.4101 11.8714 43.6975 12.1623C43.9848 12.4532 44.0928 12.8766 43.9799 13.2696C43.8669 13.6626 43.5506 13.964 43.1526 14.0579C42.5524 14.1995 41.9495 13.8342 41.7971 13.2366C41.6447 12.6392 41.999 12.0297 42.5937 11.8665Z" fill="#0066CC"/>
<path d="M24.1177 26.8692C24.7185 26.8209 25.05 27.0687 25.3745 27.5424C25.3948 27.8397 25.3785 28.1547 25.3699 28.4538C24.9632 29.0875 22.2389 31.7338 21.606 32.2585C22.3325 32.9219 23.0961 33.6711 23.7827 34.3765C24.3526 34.9622 25.5544 35.8494 25.3946 36.7155C25.3372 37.0326 25.1505 37.3116 24.8791 37.4854C24.5525 37.6958 24.3514 37.705 23.9895 37.6283C23.3209 37.2467 19.2691 33.2072 18.9592 32.5264C18.8782 32.3485 18.8894 32.2245 18.9574 32.0444C19.0491 31.8018 19.2045 31.5832 19.369 31.3848C19.9562 30.677 23.388 27.1851 24.1177 26.8692Z" fill="#0066CC"/>
<path d="M35.6722 26.8722C36.1634 26.8495 36.6217 27.1808 36.9154 27.5275C37.5912 28.3257 41.2448 31.4947 41.2716 32.2783C41.0546 33.0308 39.8689 34.0591 39.2655 34.6527C38.3525 35.5509 37.3828 36.6445 36.3902 37.4385C35.3943 38.213 34.1172 36.8757 34.9784 35.8423C36.0286 34.5823 37.3059 33.4264 38.493 32.2853C37.2821 31.0488 35.8382 29.8107 34.8092 28.4439C34.3483 27.8317 35.0806 27.0966 35.6722 26.8722Z" fill="#0066CC"/>
<path d="M31.0091 26.301C31.2742 26.293 32.0088 26.5332 32.0641 26.7823C32.2925 27.8119 31.7849 29.5638 31.5805 30.5319L30.6874 34.7454C30.4858 35.6601 30.3147 36.6831 30.0451 37.5798C29.9193 37.9983 29.5601 38.1428 29.1918 38.3005C28.9414 38.2869 28.6963 38.2234 28.4707 38.1137C27.8263 37.7977 27.9296 36.9745 28.053 36.3598C28.6939 33.1685 29.3096 29.9424 30.1255 26.7955C30.1972 26.5191 30.7793 26.3493 31.0091 26.301Z" fill="#0066CC"/>
</svg>
