<?xml version="1.0" encoding="UTF-8" standalone="no"?>
<svg
   version="1.1"
   width="1343.3114"
   height="230.06779"
   viewBox="0 0 1343.3114 230.06779"
   id="svg18"
   sodipodi:docname="fclogo9.svg"
   inkscape:version="1.4 (e7c3feb100, 2024-10-09)"
   inkscape:export-filename="fclogo7.svg"
   inkscape:export-xdpi="96"
   inkscape:export-ydpi="96"
   xmlns:inkscape="http://www.inkscape.org/namespaces/inkscape"
   xmlns:sodipodi="http://sodipodi.sourceforge.net/DTD/sodipodi-0.dtd"
   xmlns="http://www.w3.org/2000/svg"
   xmlns:svg="http://www.w3.org/2000/svg">
  <defs
     id="defs18">
    <rect
       x="82.9646"
       y="63.053097"
       width="870.5752"
       height="137.16814"
       id="rect18" />
  </defs>
  <sodipodi:namedview
     id="namedview18"
     pagecolor="#000000"
     bordercolor="#000000"
     borderopacity="0.25"
     inkscape:showpageshadow="2"
     inkscape:pageopacity="0.0"
     inkscape:pagecheckerboard="0"
     inkscape:deskcolor="#d1d1d1"
     showgrid="false"
     inkscape:zoom="0.904"
     inkscape:cx="731.74779"
     inkscape:cy="115.04425"
     inkscape:window-width="1920"
     inkscape:window-height="1043"
     inkscape:window-x="0"
     inkscape:window-y="0"
     inkscape:window-maximized="1"
     inkscape:current-layer="g20"
     inkscape:export-bgcolor="#ffffff00" />
  <text
     xml:space="preserve"
     id="text18"
     style="text-align:start;writing-mode:lr-tb;direction:ltr;white-space:pre;shape-inside:url(#rect18);display:inline;fill:#000000"
     transform="matrix(0.8,0,0,0.8,145.86806,0.23389343)"
     clip-path="none" />
  <g
     id="g20"
     style="display:inline"
     transform="matrix(4.0526297,0,0,4.0526297,1045.0784,-73.352598)">
    <path
       d="m 61.77,60.82 h -3.12 v -1.28 h -1.61 v 1.28 h -3.37 v -0.71 c 0,-0.45 -0.36,-0.81 -0.81,-0.81 H 37.18 c -0.45,0 -0.81,0.36 -0.81,0.81 v 13.95 c 0,0.45 0.36,0.81 0.81,0.81 h 15.68 c 0.45,0 0.81,-0.36 0.81,-0.81 v -0.71 h 3.37 v 1.28 h 1.61 v -1.28 h 3.12 c 1.83,0 3.31,-1.49 3.31,-3.31 v -5.9 c 0,-1.83 -1.49,-3.31 -3.31,-3.31 z m -2.42,6.26 c 0,2.99 -0.87,4.25 -1.23,4.65 H 56.63 C 56.79,71.38 56.88,71 56.88,70.6 v -7.03 c 0,-0.4 -0.09,-0.78 -0.25,-1.13 h 1.46 c 0.37,0.44 1.25,1.79 1.25,4.65 z m -7.3,6.17 H 37.98 V 60.92 h 14.07 z m 1.61,-1.52 v -9.29 h 0.47 c 0.62,0 1.13,0.51 1.13,1.13 v 7.03 c 0,0.62 -0.51,1.13 -1.13,1.13 z m 9.8,-1.7 c 0,0.94 -0.76,1.7 -1.7,1.7 h -1.71 c 0.48,-0.94 0.91,-2.41 0.91,-4.65 0,-2.24 -0.46,-3.69 -0.94,-4.65 h 1.74 c 0.94,0 1.7,0.76 1.7,1.7 z"
       fill="#00d1cd"
       data-fill-palette-color="accent"
       id="path7"
       style="display:inline" />
    <path
       d="m 37.18,33.66 h 15.68 c 0.45,0 0.81,-0.36 0.81,-0.81 v -0.71 h 3.37 v 1.28 h 1.61 v -1.28 h 3.12 c 1.83,0 3.31,-1.49 3.31,-3.31 v -5.9 c 0,-1.83 -1.49,-3.31 -3.31,-3.31 h -3.12 v -1.28 h -1.61 v 1.28 h -3.37 v -0.71 c 0,-0.45 -0.36,-0.81 -0.81,-0.81 H 37.18 c -0.45,0 -0.81,0.36 -0.81,0.81 v 13.95 c 0,0.45 0.36,0.81 0.81,0.81 z M 56.64,21.23 h 1.46 c 0.37,0.44 1.25,1.79 1.25,4.65 0,2.86 -0.87,4.25 -1.23,4.65 h -1.49 c 0.16,-0.35 0.25,-0.73 0.25,-1.13 v -7.03 c 0,-0.4 -0.09,-0.78 -0.25,-1.13 z m 6.83,1.7 v 5.9 c 0,0.94 -0.76,1.7 -1.7,1.7 h -1.71 c 0.48,-0.94 0.91,-2.41 0.91,-4.65 0,-2.24 -0.46,-3.69 -0.94,-4.65 h 1.74 c 0.94,0 1.7,0.76 1.7,1.7 z m -9.32,-1.7 c 0.62,0 1.13,0.51 1.13,1.13 v 7.03 c 0,0.62 -0.51,1.13 -1.13,1.13 H 53.68 V 21.23 Z M 37.99,19.71 H 52.06 V 32.04 H 37.99 Z"
       fill="#00d1cd"
       data-fill-palette-color="accent"
       id="path8" />
    <path
       style="font-weight:bold;font-size:213.333px;font-family:Cantarell;-inkscape-font-specification:'Cantarell Bold';display:inline;fill:#ffffff;fill-opacity:1;stroke:#ffffff;stroke-opacity:1"
       d="m -181.83508,205.75221 h 27.73329 v -61.4399 h 64.213231 V 120.20568 H -154.10179 V 81.805744 h 71.039887 V 57.699116 h -98.773177 z m 150.613196,1.70667 c 6.613323,0 14.293311,-1.49333 19.839969,-3.84 l -5.546658,-18.34663 c -2.346663,0.85333 -4.693326,1.27999 -6.613323,1.27999 -6.39999,0 -9.813318,-4.05332 -9.813318,-11.30665 V 48.099131 H -60.235171 V 178.65892 c 0,17.91997 10.879983,28.79996 29.013287,28.79996 z M 4.8314568,205.75221 H 31.924747 V 102.07238 H 4.8314568 Z M 18.484768,83.085742 c 10.239984,0 16.853307,-6.613323 16.853307,-16.853307 0,-10.239983 -6.613323,-16.853306 -16.853307,-16.853306 -10.0266503,0 -16.6399731,6.613323 -16.6399731,16.853306 0,10.239984 6.6133228,16.853307 16.6399731,16.853307 z M 101.6845,254.8188 c 33.06662,0 54.82658,-20.26663 54.82658,-50.55992 v -102.1865 h -19.19997 l -7.46665,20.0533 v 83.19987 c 0,17.91997 -9.81332,27.30662 -28.37329,27.30662 -8.746651,0 -19.4133,-2.34666 -28.586619,-6.18666 l -5.333325,20.47997 c 11.093316,5.33332 22.399964,7.89332 34.133274,7.89332 z m -0.42666,-46.93326 c 17.91997,0 31.78661,-9.81332 39.25327,-26.23996 l -7.89332,-9.59998 c -4.47999,8.10665 -12.58665,13.01331 -22.82663,13.01331 -15.786643,0 -25.813293,-12.37331 -25.813293,-31.99995 0,-18.34663 9.173318,-30.07995 24.533293,-30.07995 11.09332,0 19.83997,5.75999 24.31996,15.99998 l 8.74665,-15.57331 c -6.39999,-15.14665 -19.19996,-23.466632 -36.9066,-23.466632 -28.586624,0 -48.21326,21.759962 -48.21326,54.826582 0,32.21328 18.346638,53.11991 44.79993,53.11991 z m 154.23965,-2.13333 h 27.09329 v -64.85323 c 0,-24.95996 -14.71998,-40.53327 -38.18661,-40.53327 -14.93331,0 -28.58662,6.61333 -38.39993,20.05331 l 4.05332,16.63997 c 7.03999,-8.95999 15.35998,-13.01331 24.95996,-13.01331 13.65331,0 20.47997,7.46665 20.47997,21.54663 z m -68.05322,0 h 26.87995 V 48.099131 h -26.87995 z m 164.90628,1.49333 c 7.25332,0 14.71998,-1.27999 21.54663,-3.62666 l -5.54666,-19.4133 c -2.98666,1.28 -6.82665,1.92 -10.02665,1.92 -9.81331,0 -15.99997,-5.75999 -15.99997,-14.50665 V 71.992426 H 315.44394 V 173.11226 c 0,21.11997 13.86665,34.13328 36.90661,34.13328 z m -51.19992,-83.4132 h 67.41323 V 102.07238 H 301.15063 Z M 506.59,207.88554 c 15.35998,0 31.99995,-3.62666 44.5866,-9.81332 l -6.18666,-20.0533 c -9.38665,3.62666 -21.54663,5.75999 -31.78661,5.75999 -32.42662,0 -52.69325,-21.11996 -52.69325,-54.39991 0,-31.573282 18.34663,-49.27992 49.49325,-49.27992 11.73332,0 25.17329,2.346663 34.77328,6.186657 l 7.89332,-21.3333 c -12.79998,-5.973323 -27.30662,-9.173318 -41.81327,-9.173318 -46.93326,0 -78.71987,30.933284 -78.71987,77.439881 0,44.79992 30.07995,74.66654 74.45321,74.66654 z m 112.853,0 c 32.63995,0 54.82658,-22.18663 54.82658,-55.46658 0,-31.78661 -20.26664,-52.479912 -51.62659,-52.479912 -32.85328,0 -54.61324,22.186632 -54.61324,55.679912 0,31.57328 20.0533,52.26658 51.41325,52.26658 z m 2.34666,-22.82663 c -15.99997,0 -26.23996,-12.37331 -26.23996,-31.78661 0,-18.55997 9.38666,-30.29329 24.74663,-30.29329 15.99998,0 26.23996,12.58665 26.23996,31.99995 0,18.55997 -9.38665,30.07995 -24.74663,30.07995 z m 145.06661,20.6933 h 27.30662 v -63.78656 c 0,-25.81329 -14.50664,-41.59994 -37.97327,-41.59994 -14.93331,0 -28.79995,6.61333 -38.39994,18.34664 l 4.05333,16.63997 c 6.82665,-7.25332 15.35997,-11.30664 24.95996,-11.30664 13.22664,0 20.0533,7.46665 20.0533,21.54663 z m -68.26656,0 H 725.683 v -85.33319 l -7.67999,-18.34664 h -19.4133 z m 165.33311,1.49333 c 7.25332,0 14.71997,-1.27999 21.54663,-3.62666 l -5.54666,-19.4133 c -2.98666,1.28 -6.82666,1.92 -10.02665,1.92 -9.81332,0 -15.99998,-5.75999 -15.99998,-14.50665 V 71.992426 H 827.01621 V 173.11226 c 0,21.11997 13.86664,34.13328 36.90661,34.13328 z m -51.19992,-83.4132 h 67.41322 V 102.07238 H 812.7229 Z m 91.94634,81.91987 h 27.09329 v -71.03988 l -5.54666,-32.63995 h -21.54663 z m 21.9733,-58.8799 c 5.75999,-12.58665 17.06664,-20.0533 29.65328,-20.0533 4.48,0 9.38666,0.85333 13.22665,2.13333 l 6.39999,-24.95996 c -4.47999,-1.70667 -9.81332,-2.77333 -15.35998,-2.77333 -13.65331,0 -26.23995,7.25332 -33.91994,19.62663 z m 110.50656,61.01323 c 32.6399,0 54.8265,-22.18663 54.8265,-55.46658 0,-31.78661 -20.2666,-52.479912 -51.6266,-52.479912 -32.8532,0 -54.6132,22.186632 -54.6132,55.679912 0,31.57328 20.0533,52.26658 51.4133,52.26658 z m 2.3466,-22.82663 c -16,0 -26.2399,-12.37331 -26.2399,-31.78661 0,-18.55997 9.3866,-30.29329 24.7466,-30.29329 16,0 26.2399,12.58665 26.2399,31.99995 0,18.55997 -9.3866,30.07995 -24.7466,30.07995 z m 105.8133,22.39997 c 6.6133,0 14.2933,-1.49333 19.84,-3.84 l -5.5467,-18.34663 c -2.3467,0.85333 -4.6933,1.27999 -6.6133,1.27999 -6.4,0 -9.8133,-4.05332 -9.8133,-11.30665 V 48.099131 h -26.88 V 178.65892 c 0,17.91997 10.88,28.79996 29.0133,28.79996 z"
       id="text19"
       transform="matrix(0.19740268,0,0,0.19740268,-221.88318,18.157714)"
       aria-label="Flight Control"
       inkscape:label="text19" />
    <path
       d="m 70.28,40.31 h -3.12 v -1.28 h -1.61 v 1.28 H 62.18 V 39.6 c 0,-0.45 -0.36,-0.81 -0.81,-0.81 H 45.69 c -0.45,0 -0.81,0.36 -0.81,0.81 v 13.95 c 0,0.45 0.36,0.81 0.81,0.81 h 15.68 c 0.45,0 0.81,-0.36 0.81,-0.81 v -0.71 h 3.37 v 1.28 h 1.61 v -1.28 h 3.12 c 1.83,0 3.31,-1.49 3.31,-3.31 v -5.9 c 0,-1.83 -1.49,-3.31 -3.31,-3.31 z m -2.42,6.26 c 0,2.99 -0.87,4.25 -1.23,4.65 h -1.49 c 0.16,-0.35 0.25,-0.73 0.25,-1.13 v -7.03 c 0,-0.4 -0.09,-0.78 -0.25,-1.13 h 1.46 c 0.37,0.44 1.25,1.79 1.25,4.65 z m -7.3,6.17 H 46.49 V 40.41 h 14.07 z m 1.61,-1.52 v -9.29 h 0.47 c 0.62,0 1.13,0.51 1.13,1.13 v 7.03 c 0,0.62 -0.51,1.13 -1.13,1.13 z m 9.8,-1.7 c 0,0.94 -0.76,1.7 -1.7,1.7 h -1.71 c 0.48,-0.94 0.91,-2.41 0.91,-4.65 0,-2.24 -0.46,-3.69 -0.94,-4.65 h 1.74 c 0.94,0 1.7,0.76 1.7,1.7 z"
       fill="#00d1cd"
       data-fill-palette-color="accent"
       id="path9" />
    <path
       d="m 37.58,46 -4.49,-4.49 -1.14,1.14 3.12,3.12 H 18.89 v 1.61 h 16.17 l -3.12,3.12 1.14,1.14 4.49,-4.49 c 0.32,-0.32 0.32,-0.83 0,-1.14 z"
       fill="#00d1cd"
       data-fill-palette-color="accent"
       id="path10" />
    <path
       d="m 27.31,28.26 1.14,1.14 2.95,-2.95 c 0.32,-0.32 0.32,-0.83 0,-1.14 l -2.95,-2.95 -1.14,1.14 1.58,1.58 h -9.97 v 1.61 h 9.97 l -1.58,1.58 z"
       fill="#00d1cd"
       data-fill-palette-color="accent"
       id="path11" />
    <path
       d="m 28.46,63.56 -1.14,1.14 1.58,1.58 h -9.97 v 1.61 h 9.97 l -1.58,1.58 1.14,1.14 2.95,-2.95 c 0.32,-0.32 0.32,-0.83 0,-1.14 l -2.95,-2.95 z"
       fill="#00d1cd"
       data-fill-palette-color="accent"
       id="path12"
       style="display:inline" />
  </g>
</svg>
