<?xml version="1.0" encoding="UTF-8"?>
<svg id="Logos" xmlns="http://www.w3.org/2000/svg" version="1.1" viewBox="0 0 911.16 244">
  <!-- Generator: Adobe Illustrator 29.2.1, SVG Export Plug-In . SVG Version: 2.1.0 Build 116)  -->
  <title>Red Hat Edge Manager logo</title>
<metadata><?xpacket begin="﻿" id="W5M0MpCehiHzreSzNTczkc9d"?>
<x:xmpmeta xmlns:x="adobe:ns:meta/" x:xmptk="Adobe XMP Core 8.0-c001 1.000000, 0000/00/00-00:00:00        ">
   <rdf:RDF xmlns:rdf="http://www.w3.org/1999/02/22-rdf-syntax-ns#">
      <rdf:Description rdf:about=""
            xmlns:xmp="http://ns.adobe.com/xap/1.0/"
            xmlns:dc="http://purl.org/dc/elements/1.1/">
         <xmp:brand-content-subtype>Product logos</xmp:brand-content-subtype>
         <xmp:rhcc-rights-restricted>no</xmp:rhcc-rights-restricted>
         <xmp:brand-logo-version>Two line</xmp:brand-logo-version>
         <xmp:brand-logo-color>Reverse</xmp:brand-logo-color>
         <xmp:brand-content-type>Logo</xmp:brand-content-type>
         <xmp:rhcc-file-last-modified>2025-02-10T16:29:54.715Z</xmp:rhcc-file-last-modified>
         <xmp:brand-color-mode>RGB</xmp:brand-color-mode>
         <dc:format>image/svg+xml</dc:format>
         <dc:modified>2025-02-10T16:33:18.091Z</dc:modified>
         <dc:title>
            <rdf:Alt>
               <rdf:li xml:lang="x-default">Red Hat Edge Manager logo</rdf:li>
            </rdf:Alt>
         </dc:title>
      </rdf:Description>
   </rdf:RDF>
</x:xmpmeta>
                                                                                                    
                                                                                                    
                                                                                                    
                                                                                                    
                                                                                                    
                                                                                                    
                                                                                                    
                                                                                                    
                                                                                                    
                                                                                                    
                                                                                                    
                                                                                                    
                                                                                                    
                                                                                                    
                                                                                                    
                                                                                                    
                                                                                                    
                                                                                                    
                                                                                                    
                                                                                                    
                           
<?xpacket end="w"?></metadata>
<defs>
    <style>
      .st0 {
        fill: #fff;
      }

      .st1 {
        fill: #e00;
      }
    </style>
  </defs>
  <g>
    <path class="st0" d="M228.651,219.539v-72.8h53.664v9.568h-42.744v21.84h28.08v9.36h-28.08v22.464h43.16v9.568h-54.08Z"/>
    <path class="st0" d="M330.468,219.539v-4.992c-2.22,1.872-4.716,3.312-7.488,4.316-2.773,1.004-5.686,1.508-8.736,1.508-3.744,0-7.245-.712-10.504-2.132-3.26-1.42-6.084-3.362-8.476-5.824-2.393-2.46-4.282-5.372-5.668-8.736-1.388-3.362-2.08-6.916-2.08-10.66s.692-7.28,2.08-10.608c1.386-3.328,3.275-6.222,5.668-8.684,2.392-2.46,5.234-4.402,8.527-5.824,3.293-1.42,6.847-2.132,10.66-2.132,2.98,0,5.824.452,8.528,1.352,2.704.902,5.164,2.184,7.384,3.848v-24.232l10.4-2.288v75.088h-10.296ZM297.707,192.915c0,5.2,1.751,9.568,5.253,13.104,3.5,3.536,7.747,5.304,12.739,5.304,3.051,0,5.824-.572,8.32-1.716s4.61-2.686,6.344-4.628v-24.024c-1.664-1.872-3.779-3.38-6.344-4.524-2.566-1.144-5.34-1.716-8.32-1.716-5.132,0-9.412,1.752-12.844,5.252-3.432,3.501-5.148,7.818-5.148,12.948Z"/>
    <path class="st0" d="M377.162,219.955c-3.744,0-7.246-.71-10.504-2.132-3.26-1.42-6.068-3.344-8.424-5.772-2.358-2.426-4.23-5.304-5.616-8.632-1.388-3.328-2.08-6.864-2.08-10.608s.692-7.28,2.08-10.608c1.386-3.328,3.275-6.204,5.668-8.632,2.392-2.426,5.234-4.351,8.527-5.772,3.293-1.42,6.812-2.132,10.557-2.132,2.912,0,5.702.452,8.372,1.352,2.668.902,5.112,2.22,7.332,3.952v-4.368h10.296v53.352c0,6.932-2.116,12.236-6.344,15.912-4.23,3.674-10.192,5.512-17.889,5.512-3.813,0-7.558-.434-11.231-1.3-3.676-.868-7.038-2.168-10.088-3.9l4.056-8.112c2.98,1.524,5.858,2.668,8.632,3.432,2.772.762,5.546,1.144,8.32,1.144,4.576,0,8.076-1.058,10.504-3.172,2.426-2.116,3.64-5.252,3.64-9.412v-5.72c-2.22,1.804-4.663,3.19-7.332,4.16-2.67.972-5.495,1.456-8.476,1.456ZM360.729,192.811c0,5.062,1.698,9.344,5.097,12.844,3.396,3.501,7.592,5.252,12.584,5.252,2.98,0,5.72-.537,8.216-1.612,2.496-1.074,4.61-2.582,6.344-4.524v-23.92c-1.664-1.94-3.762-3.448-6.292-4.524-2.531-1.074-5.287-1.612-8.268-1.612-4.992,0-9.188,1.752-12.584,5.252-3.398,3.501-5.097,7.784-5.097,12.844Z"/>
    <path class="st0" d="M413.145,193.019c0-3.744.676-7.28,2.028-10.608,1.352-3.328,3.224-6.222,5.615-8.684,2.393-2.46,5.2-4.402,8.424-5.824,3.225-1.42,6.708-2.132,10.452-2.132,3.604,0,6.984.712,10.141,2.132,3.154,1.422,5.857,3.364,8.111,5.824,2.253,2.462,4.038,5.392,5.356,8.788,1.316,3.398,1.976,7.038,1.976,10.92v3.016h-41.808c.692,4.368,2.704,7.992,6.032,10.868,3.328,2.878,7.279,4.316,11.855,4.316,2.564,0,5.026-.416,7.384-1.248,2.356-.832,4.368-1.976,6.032-3.432l6.656,6.552c-3.12,2.428-6.328,4.196-9.62,5.304-3.294,1.108-6.916,1.664-10.868,1.664-3.884,0-7.523-.712-10.92-2.132-3.397-1.42-6.344-3.344-8.84-5.772-2.496-2.426-4.456-5.32-5.876-8.684-1.422-3.362-2.132-6.984-2.132-10.868ZM439.457,174.506c-4.021,0-7.487,1.318-10.399,3.952-2.912,2.636-4.75,6.032-5.513,10.192h31.408c-.693-4.02-2.496-7.384-5.408-10.088-2.911-2.704-6.275-4.056-10.088-4.056Z"/>
    <path class="st0" d="M535.448,214.338l-27.144-54.08v59.28h-10.192v-72.8h14.561l22.88,46.488,22.775-46.488h14.561v72.8h-10.296v-59.384l-27.145,54.184Z"/>
    <path class="st0" d="M602.112,220.475c-5.756,0-10.436-1.508-14.04-4.524-3.605-3.016-5.408-6.88-5.408-11.596,0-5.268,2.028-9.272,6.084-12.012,4.057-2.738,9.169-4.108,15.341-4.108,2.563,0,5.078.26,7.54.78,2.46.52,4.766,1.231,6.915,2.132v-5.616c0-3.744-1.109-6.552-3.327-8.424-2.22-1.872-5.408-2.808-9.568-2.808-2.565,0-5.184.382-7.852,1.144-2.67.764-5.53,1.872-8.58,3.328l-3.849-7.8c3.744-1.732,7.384-3.068,10.92-4.004,3.536-.936,7.141-1.404,10.816-1.404,6.794,0,12.098,1.63,15.912,4.888,3.812,3.26,5.72,7.939,5.72,14.04v35.048h-10.192v-4.576c-2.287,1.872-4.802,3.26-7.539,4.16-2.74.9-5.704,1.352-8.893,1.352ZM592.648,204.146c0,2.566,1.108,4.646,3.328,6.24,2.218,1.596,5.061,2.392,8.528,2.392,2.771,0,5.338-.416,7.695-1.248,2.356-.832,4.473-2.08,6.344-3.744v-9.256c-1.941-1.04-4.021-1.82-6.239-2.34-2.22-.52-4.681-.78-7.384-.78-3.606,0-6.553.764-8.841,2.288-2.288,1.526-3.432,3.676-3.432,6.448Z"/>
    <path class="st0" d="M640.695,219.539v-52.936h10.399v5.304c2.08-2.08,4.454-3.656,7.124-4.732,2.669-1.074,5.599-1.612,8.788-1.612,6.032,0,10.973,1.942,14.82,5.824,3.848,3.884,5.771,8.84,5.771,14.872v33.28h-10.296v-31.512c0-4.09-1.18-7.348-3.536-9.776-2.357-2.426-5.581-3.64-9.672-3.64-2.773,0-5.27.59-7.487,1.768-2.22,1.18-4.057,2.878-5.513,5.096v38.064h-10.399Z"/>
    <path class="st0" d="M716.51,220.475c-5.756,0-10.436-1.508-14.04-4.524-3.605-3.016-5.408-6.88-5.408-11.596,0-5.268,2.028-9.272,6.084-12.012,4.057-2.738,9.169-4.108,15.341-4.108,2.563,0,5.078.26,7.54.78,2.46.52,4.766,1.231,6.915,2.132v-5.616c0-3.744-1.109-6.552-3.327-8.424-2.22-1.872-5.408-2.808-9.568-2.808-2.565,0-5.184.382-7.852,1.144-2.67.764-5.53,1.872-8.58,3.328l-3.849-7.8c3.744-1.732,7.384-3.068,10.92-4.004,3.536-.936,7.141-1.404,10.816-1.404,6.794,0,12.098,1.63,15.912,4.888,3.812,3.26,5.72,7.939,5.72,14.04v35.048h-10.192v-4.576c-2.287,1.872-4.802,3.26-7.539,4.16-2.74.9-5.704,1.352-8.893,1.352ZM707.046,204.146c0,2.566,1.108,4.646,3.328,6.24,2.218,1.596,5.061,2.392,8.528,2.392,2.771,0,5.338-.416,7.695-1.248,2.356-.832,4.473-2.08,6.344-3.744v-9.256c-1.941-1.04-4.021-1.82-6.239-2.34-2.22-.52-4.681-.78-7.384-.78-3.606,0-6.553.764-8.841,2.288-2.288,1.526-3.432,3.676-3.432,6.448Z"/>
    <path class="st0" d="M779.429,219.955c-3.744,0-7.246-.71-10.504-2.132-3.26-1.42-6.068-3.344-8.424-5.772-2.358-2.426-4.23-5.304-5.616-8.632-1.388-3.328-2.08-6.864-2.08-10.608s.692-7.28,2.08-10.608c1.386-3.328,3.275-6.204,5.668-8.632,2.392-2.426,5.234-4.351,8.527-5.772,3.293-1.42,6.812-2.132,10.557-2.132,2.912,0,5.702.452,8.372,1.352,2.668.902,5.112,2.22,7.332,3.952v-4.368h10.296v53.352c0,6.932-2.116,12.236-6.344,15.912-4.23,3.674-10.192,5.512-17.889,5.512-3.813,0-7.558-.434-11.231-1.3-3.676-.868-7.038-2.168-10.088-3.9l4.056-8.112c2.98,1.524,5.858,2.668,8.632,3.432,2.772.762,5.546,1.144,8.32,1.144,4.576,0,8.076-1.058,10.504-3.172,2.426-2.116,3.64-5.252,3.64-9.412v-5.72c-2.22,1.804-4.663,3.19-7.332,4.16-2.67.972-5.495,1.456-8.476,1.456ZM762.996,192.811c0,5.062,1.698,9.344,5.097,12.844,3.396,3.501,7.592,5.252,12.584,5.252,2.98,0,5.72-.537,8.216-1.612,2.496-1.074,4.61-2.582,6.344-4.524v-23.92c-1.664-1.94-3.762-3.448-6.292-4.524-2.531-1.074-5.287-1.612-8.268-1.612-4.992,0-9.188,1.752-12.584,5.252-3.398,3.501-5.097,7.784-5.097,12.844Z"/>
    <path class="st0" d="M815.412,193.019c0-3.744.676-7.28,2.028-10.608,1.352-3.328,3.224-6.222,5.615-8.684,2.393-2.46,5.2-4.402,8.424-5.824,3.225-1.42,6.708-2.132,10.452-2.132,3.604,0,6.984.712,10.141,2.132,3.154,1.422,5.857,3.364,8.111,5.824,2.253,2.462,4.038,5.392,5.356,8.788,1.316,3.398,1.976,7.038,1.976,10.92v3.016h-41.808c.692,4.368,2.704,7.992,6.032,10.868,3.328,2.878,7.279,4.316,11.855,4.316,2.564,0,5.026-.416,7.384-1.248,2.356-.832,4.368-1.976,6.032-3.432l6.656,6.552c-3.12,2.428-6.328,4.196-9.62,5.304-3.294,1.108-6.916,1.664-10.868,1.664-3.884,0-7.523-.712-10.92-2.132-3.397-1.42-6.344-3.344-8.84-5.772-2.496-2.426-4.456-5.32-5.876-8.684-1.422-3.362-2.132-6.984-2.132-10.868ZM841.724,174.506c-4.021,0-7.487,1.318-10.399,3.952-2.912,2.636-4.75,6.032-5.513,10.192h31.408c-.693-4.02-2.496-7.384-5.408-10.088-2.911-2.704-6.275-4.056-10.088-4.056Z"/>
    <path class="st0" d="M877.292,219.539v-52.936h10.399v6.552c1.732-2.634,3.883-4.576,6.448-5.824,2.564-1.248,5.234-1.872,8.008-1.872,1.179,0,2.2.07,3.068.208.866.14,1.646.348,2.34.624v9.36c-.832-.276-1.804-.536-2.912-.78-1.109-.242-2.22-.364-3.328-.364-2.773,0-5.374.746-7.8,2.236-2.428,1.492-4.368,3.936-5.824,7.332v35.464h-10.399Z"/>
  </g>
  <g>
    <g>
      <path class="st1" d="M128.972,84.995c12.505,0,30.612-2.588,30.612-17.462,0-1.161-.032-2.29-.31-3.422l-7.449-32.362c-1.727-7.114-3.234-10.348-15.738-16.6-9.701-4.957-30.827-13.149-37.079-13.149-5.821,0-7.544,7.544-14.443,7.544-6.681,0-11.64-5.604-17.892-5.604-6.035,0-9.917,4.095-12.934,12.503,0,0-8.408,23.712-9.486,27.159-.216.648-.222,1.375-.222,1.942,0,9.216,36.295,39.45,84.941,39.45M161.523,73.569c1.726,8.191,1.726,9.054,1.726,10.131,0,14.013-15.739,21.772-36.431,21.772-46.782,0-87.739-27.376-87.739-45.485,0-2.804.647-5.39,1.509-7.329-16.815.862-38.588,3.88-38.588,23.066,0,31.473,74.589,70.276,133.655,70.276,45.272,0,56.695-20.478,56.695-36.645,0-12.721-10.993-27.162-30.826-35.786"/>
      <path d="M161.523,73.569c1.726,8.191,1.726,9.054,1.726,10.131,0,14.013-15.739,21.772-36.431,21.772-46.782,0-87.739-27.376-87.739-45.485,0-2.804.647-5.39,1.509-7.329l3.665-9.056c-.216.648-.222,1.375-.222,1.942,0,9.216,36.295,39.45,84.941,39.45,12.505,0,30.612-2.588,30.612-17.462,0-1.161-.032-2.29-.31-3.422l2.25,9.459Z"/>
    </g>
    <path class="st0" d="M581.238,94.305c0,11.884,7.153,17.668,20.192,17.668,3.156,0,8.624-.736,11.885-1.683v-13.777c-2.839.841-4.943,1.157-7.679,1.157-5.364,0-7.36-1.683-7.36-6.731v-21.139h15.564v-14.198h-15.564v-17.984l-17.039,3.681v14.303h-11.253v14.198h11.253v24.504ZM528.295,94.62c0-3.681,3.681-5.469,9.255-5.469,3.681,0,7.046.526,10.096,1.262v7.151c-3.155,1.788-6.836,2.629-10.622,2.629-5.469,0-8.729-2.103-8.729-5.574M533.493,112.183c5.995,0,10.832-1.262,15.355-4.312v3.365h16.827v-35.652c0-13.567-9.15-21.034-24.399-21.034-8.519,0-16.932,1.998-25.977,6.1l6.1,12.515c6.52-2.734,11.989-4.417,16.827-4.417,7.046,0,10.622,2.734,10.622,8.308v2.734c-3.996-1.052-8.203-1.578-12.62-1.578-14.303,0-22.927,5.995-22.927,16.722,0,9.781,7.782,17.248,20.192,17.248M441.05,111.237h18.089v-28.816h30.288v28.816h18.089V37.619h-18.089v28.29h-30.288v-28.29h-18.089v73.618ZM372.121,83.367c0-7.993,6.31-14.093,14.618-14.093,4.627,0,8.834,1.578,11.779,4.312v19.456c-3.05,2.945-7.046,4.417-11.779,4.417-8.203,0-14.618-6.1-14.618-14.093M398.729,111.237h16.827V33.938l-17.037,3.681v20.928c-4.207-2.419-9.044-3.681-14.198-3.681-16.196,0-28.921,12.515-28.921,28.501s12.515,28.606,28.395,28.606c5.469,0,10.622-1.683,14.934-4.838v4.102ZM321.537,68.538c5.364,0,9.886,3.471,11.674,8.834h-23.242c1.683-5.574,5.889-8.834,11.569-8.834M292.826,83.472c0,16.196,13.251,28.816,30.288,28.816,9.36,0,16.196-2.524,23.242-8.413l-11.253-9.991c-2.629,2.734-6.52,4.207-11.148,4.207-6.31,0-11.463-3.471-13.672-8.834h39.648v-4.207c0-17.668-11.884-30.394-28.08-30.394-16.301,0-29.026,12.62-29.026,28.816M263.485,53.079c5.995,0,9.36,3.786,9.36,8.308s-3.365,8.308-9.36,8.308h-17.879v-16.617h17.879ZM227.518,111.237h18.089v-26.818h13.777l13.882,26.818h20.192l-16.196-29.447c8.729-3.786,13.882-11.674,13.882-20.718,0-13.251-10.412-23.453-25.977-23.453h-37.65v73.618Z"/>
  </g>
</svg>